<?xml version="1.0" standalone="no"?>
<!DOCTYPE svg PUBLIC "-//W3C//DTD SVG 1.1//EN" "http://www.w3.org/Graphics/SVG/1.1/DTD/svg11.dtd">
<svg xmlns="http://www.w3.org/2000/svg" width="160" height="160" viewBox="0 0 160 160"><path fill-rule="evenodd" fill="#16a34a" d="M35.533 20.517c-2.229 3.236-6.639 7.581-10.666 10.511C21.09 33.775 18 36.446 18 36.963c0 .518 2.641 3.916 5.868 7.552 7.209 8.121 10.852 15.122 12.255 23.55 1.402 8.425.495 21.288-1.957 27.74-2.151 5.661-9.469 16.423-13.557 19.938-1.435 1.234-2.609 2.875-2.609 3.646s2.137 2.776 4.75 4.454c5.008 3.217 10.099 8.229 14.544 14.318 1.978 2.71 3.196 3.524 4.689 3.133 1.109-.29 2.017-.884 2.017-1.319 0-1.951 9.323-11.954 14.399-15.45 3.081-2.122 5.601-4.501 5.601-5.288s-2.612-4.28-5.804-7.764c-10.255-11.191-13.789-21.338-12.96-37.202.429-8.203.934-10.231 4.183-16.804 2.032-4.112 6.144-10.121 9.138-13.355S64 37.517 64 36.642s-1.237-2.232-2.75-3.016c-4.265-2.21-11.986-9.382-15.324-14.234C44.26 16.97 42.103 15 41.118 15c-1.039 0-3.374 2.306-5.585 5.517m83.579-2.198c-2.104 3.404-11.761 12.771-16.472 15.978-1.452.988-2.64 2.189-2.64 2.668s1.878 2.821 4.174 5.203c5.912 6.135 11.622 15.322 13.466 21.665 1.794 6.17 1.983 19.425.379 26.58-1.626 7.259-5.558 14.142-12.084 21.157-3.264 3.509-5.928 6.728-5.92 7.155.029 1.435 1.466 2.869 5.072 5.058 3.227 1.96 9.681 8.41 15.586 15.576 1.195 1.451 2.77 2.391 3.5 2.089.73-.301 3.07-3.051 5.2-6.111 2.16-3.103 6.693-7.609 10.25-10.189 3.507-2.543 6.377-5.245 6.377-6.003s-2.442-4.015-5.426-7.239c-18.386-19.858-18.181-47.856.499-68.295 2.71-2.965 4.927-6.04 4.927-6.833s-2.227-2.884-4.949-4.648c-5.158-3.342-12.538-11.005-14.331-14.88-1.574-3.402-5.156-2.898-7.608 1.069M77.147 61.25C73 66.811 69.846 69.897 63.75 74.358c-4.483 3.28-4.72 5.089-.922 7.053 3.468 1.793 13.589 11.794 15.906 15.716 2.301 3.895 4.773 3.611 7.622-.877 2.624-4.132 11.927-13.261 15.42-15.13 3.063-1.639 2.785-4.562-.643-6.772-4.47-2.881-9.323-7.444-13.14-12.354-3.602-4.634-4.971-5.952-6.211-5.979-.396-.008-2.481 2.347-4.635 5.235"/></svg>